<?xml version="1.0" encoding="UTF-8"?>
<svg id="_图层_2" data-name="图层 2" xmlns="http://www.w3.org/2000/svg" viewBox="0 0 1730.9 460.26">
  <defs>
    <style>
      .cls-1 {
        fill: none;
      }

      .cls-2 {
        fill: #e5530a;
      }

      .cls-3 {
        fill: #ed5d15;
      }

      .cls-4 {
        fill: #f47434;
      }

      .cls-5 {
        fill: #fff2e9;
      }

      .cls-6 {
        fill: #ff7300;
      }
    </style>
  </defs>
  <g id="_图层_1-2" data-name="图层 1">
    <rect class="cls-1" x="697.17" y="126.18" width="112.95" height="0"/>
    <path class="cls-6" d="M42.44,458.64s252.97,24.8,352.88-119.75,6.38-260.76,6.38-260.76c0,0-75.11-109.12-250.84-69.44C-24.87,48.37,1.39,228.51,1.39,228.51c0,0,2.12,48.31,50.46,102.2,48.34,53.89-9.41,127.94-9.41,127.94Z"/>
    <path class="cls-5" d="M316.31,74.57l-1.31,2.58c-3.79,7.46-.38,13.99,7.97,15.23,10.76,1.6,20.02,3.7,27.77,6.28,11.09,3.7,19.71,9.02,25.85,15.96,4.94,5.3,8.09,10.68,9.47,16.16,1.37,5.48.93,10.44-1.33,14.88-2.51,4.94-7.73,9.11-15.64,12.51-7.92,3.4-16.21,4.95-24.88,4.66-16.34-.56-24.26-6.15-23.77-16.79.3-4.87-.89-9.16-3.56-12.86-6.74-9.31-28.71-3.2-35.32,9.79l-13.53,26.61c-3.58,7.04-.75,13.31,6.76,15.01,12.94,2.93,23.53,5.61,31.77,8.02,10.85,3.19,19.77,7.56,26.78,13.13,7.57,5.79,12.23,12.56,13.97,20.31,1.74,7.75.33,16.12-4.24,25.11-5.73,11.27-15.55,21.66-29.46,31.19-13.92,9.53-31.12,17.11-51.62,22.75-15.92,4.38-33.02,7.16-51.31,8.37-9.32.61-19.18,6.71-22.98,14.19l-11.88,23.37c-2.96,5.83-6.08,10.05-9.35,12.65-3.27,2.6-8.16,3.79-14.66,3.57-6-.2-9.66-1.44-10.97-3.69-1.31-2.26-.81-5.66,1.5-10.2l13.56-26.69c3.79-7.45.37-13.93-7.93-15.23-12.45-1.95-23.21-4.62-32.28-8-12.48-4.65-22.02-10.22-28.63-16.73-6.61-6.51-10.56-13.18-11.83-20.01-1.28-6.83-.28-13.45,2.98-19.88,2.41-4.74,7.71-8.91,15.89-12.5,8.18-3.59,16.94-5.23,26.28-4.91,7.5.26,13.31,1.51,17.42,3.76,4.11,2.25,6.21,5.29,6.31,9.11.38,8.26,1.15,14.59,2.3,19,1.15,4.41,4.2,8.51,9.14,12.3.05.04.1.08.15.11,8.55,6.45,27.24-.2,33.07-11.67l18.41-36.23c3.53-6.95.83-13.18-6.51-14.95-14.78-3.57-27.16-7.32-37.15-11.25-12.72-5.01-21.63-11.82-26.75-20.44-5.12-8.62-4.36-19.45,2.27-32.5,8.64-17,24.85-30.62,48.62-40.87,20.06-8.65,44.26-13.86,72.61-15.64,9.36-.59,19.28-6.75,23.1-14.27l1.06-2.08c4.22-8.3,11.58-12.27,22.08-11.92s13.94,4.6,9.82,12.7ZM243.33,154.61l8.28-16.29c5.44-10.7-4.02-18.34-17.9-14.43-3.48.98-6.72,2.04-9.71,3.19-9.9,3.79-16.92,9.78-21.09,17.98-3.97,7.81-3.3,13.84,2,18.09,1.74,1.39,3.91,2.76,6.51,4.11,9.45,4.88,26.42-1.84,31.91-12.64ZM232.27,239.93l-13.43,26.42c-5.28,10.38,3.47,18.08,16.93,14.68,6.79-1.71,12.98-3.88,18.59-6.5,12.23-5.71,20.38-12.58,24.45-20.58,4.37-8.6,3.29-15.39-3.24-20.39-3.1-2.37-7.24-4.62-12.4-6.73-9.72-3.98-25.66,2.78-30.9,13.1Z"/>
    <g>
      <path class="cls-2" d="M648.15,329.55c31.68-7.62,51.33-12.83,85.02-22.86l.4,58.55c-50.53,16.84-89.83,28.07-150.78,42.91-6.82,1.6-20.45,5.61-26.47,7.22l-9.62-66.97c13.23-.4,20.45-1.2,37.7-4.81V94.15c0-25.66-.4-35.69-2.41-50.13h68.57c-2.01,14.84-2.41,24.06-2.41,50.13v58.15h44.91c21.25,0,29.27-.4,40.5-2.01v62.56c-11.23-1.6-19.25-2.01-40.5-2.01h-44.91v118.7h0ZM804.94,344.79c0,7.62,4.01,9.22,24.86,9.22,18.45,0,26.07-1.6,29.27-6.82,4.01-5.61,6.02-30.48,6.02-70.18v-15.24c22.06,12.43,34.49,17.24,60.55,23.26-3.21,76.99-8.02,98.25-25.66,113.09-12.83,10.43-30.88,13.63-76.19,13.63-34.09,0-49.73-1.6-60.95-6.42-14.44-6.02-20.05-17.64-20.05-42.91V94.96c0-26.07-.4-36.49-2.41-50.13h66.97c-2.01,13.63-2.41,24.46-2.41,50.13v69.38c35.69-20.05,66.97-43.31,80.6-59.75l41.3,51.33c-3.61,2.81-6.42,4.41-13.23,10.03-18.85,14.84-69.78,44.91-108.68,64.16v114.69h0Z"/>
      <path class="cls-3" d="M1045.56,329.55c31.68-7.62,51.33-12.83,85.02-22.86l.4,58.55c-50.53,16.84-89.83,28.07-150.78,42.91-6.82,1.6-20.45,5.61-26.47,7.22l-9.62-66.97c13.23-.4,20.45-1.2,37.7-4.81V94.15c0-25.66-.4-35.69-2.41-50.13h68.57c-2.01,14.84-2.41,24.06-2.41,50.13v58.15h44.91c21.25,0,29.27-.4,40.5-2.01v62.56c-11.23-1.6-19.25-2.01-40.5-2.01h-44.91v118.7h0ZM1202.36,344.79c0,7.62,4.01,9.22,24.86,9.22,18.45,0,26.07-1.6,29.27-6.82,4.01-5.61,6.02-30.48,6.02-70.18v-15.24c22.06,12.43,34.49,17.24,60.55,23.26-3.21,76.99-8.02,98.25-25.66,113.09-12.83,10.43-30.88,13.63-76.19,13.63-34.09,0-49.73-1.6-60.95-6.42-14.44-6.02-20.05-17.64-20.05-42.91V94.96c0-26.07-.4-36.49-2.41-50.13h66.97c-2.01,13.63-2.41,24.46-2.41,50.13v69.38c35.69-20.05,66.97-43.31,80.6-59.75l41.3,51.33c-3.61,2.81-6.42,4.41-13.23,10.03-18.85,14.84-69.78,44.91-108.68,64.16v114.69Z"/>
      <path class="cls-4" d="M1562.87,186.39c-1.6,9.22-2.01,16.04-2.01,35.69-.4,62.96-6.42,97.85-23.26,131.13-14.04,26.87-30.48,45.31-58.55,64.96-11.23-18.05-22.46-32.48-36.09-47.32.4,20.05.8,26.47,2.41,42.51h-64.96c2.01-18.05,2.41-27.27,2.41-45.72v-113.49c.27-10.16.53-18.45.8-24.86-7.62,10.43-11.23,14.84-22.06,26.87-5.61-30.48-9.62-45.72-20.05-74.19,26.07-26.07,45.31-57.35,60.95-98.25,7.22-18.05,11.63-34.49,13.63-49.32l64.16,14.84c-.53,1.87-1.47,4.68-2.81,8.42,0,.8-1.2,4.01-2.81,9.62-8.42,25.26-17.24,46.12-31.68,74.99v13.23c23.26-13.23,41.3-27.67,60.15-48.12,19.25-21.25,30.88-38.5,43.71-65.77h62.56c12.43,26.07,26.87,45.72,50.53,68.97,22.46,22.06,40.5,34.49,70.98,48.92-9.22,16.84-18.05,37.29-27.27,64.56-16.04-9.62-22.86-14.44-38.5-26.87-.4,10.03-.8,20.45-.8,37.29v124.72c0,20.85.8,35.69,2.81,53.34h-68.97c2.01-16.04,2.81-30.88,2.81-52.53v-126.32c0-18.85-.8-35.29-2.41-46.92h54.14c-30.48-27.27-51.73-52.53-73.39-88.62-20.85,37.7-40.1,62.16-68.57,88.22h52.13ZM1442.97,361.23c42.51-28.07,55.34-59.75,55.34-138.35,0-11.63,0-16.84-.4-25.66-12.83,10.83-20.45,16.04-39.3,28.07-5.21-17.64-9.22-28.07-15.64-42.11v178.05Z"/>
    </g>
  </g>
</svg>